<mxfile host="app.diagrams.net" agent="Mozilla/5.0 (X11; Linux x86_64) AppleWebKit/537.36 (KHTML, like Gecko) Chrome/129.0.0.0 Safari/537.36" version="24.7.17">
  <diagram id="C5RBs43oDa-KdzZeNtuy" name="Page-1">
    <mxGraphModel dx="1077" dy="546" grid="1" gridSize="10" guides="1" tooltips="1" connect="1" arrows="1" fold="1" page="1" pageScale="1" pageWidth="827" pageHeight="1169" math="0" shadow="0">
      <root>
        <mxCell id="WIyWlLk6GJQsqaUBKTNV-0" />
        <mxCell id="WIyWlLk6GJQsqaUBKTNV-1" parent="WIyWlLk6GJQsqaUBKTNV-0" />
        <mxCell id="WIyWlLk6GJQsqaUBKTNV-3" value="&lt;div style=&quot;text-align: justify; font-size: 10px;&quot;&gt;&lt;font style=&quot;font-size: 10px;&quot;&gt;7a79 7878 7575 7575 7574 7370 6f6e 6e6e&amp;nbsp; zyxxuuuuutsponnn&lt;/font&gt;&lt;/div&gt;&lt;div style=&quot;text-align: justify; font-size: 10px;&quot;&gt;&lt;font style=&quot;font-size: 10px;&quot;&gt;6e68 6d6c 6b6b 6a69 6d68 6666 6665 6565&amp;nbsp; nhmlkkjimhfffeee&lt;/font&gt;&lt;/div&gt;&lt;div style=&quot;text-align: justify; font-size: 10px;&quot;&gt;&lt;font style=&quot;font-size: 10px;&quot;&gt;6464 6161 6161 0000 0000 0000 0000 0000&amp;nbsp; ddaaaa.........&lt;/font&gt;&lt;/div&gt;" style="rounded=1;whiteSpace=wrap;html=1;fontSize=10;glass=0;strokeWidth=1;shadow=0;fillColor=#dae8fc;strokeColor=#6c8ebf;" parent="WIyWlLk6GJQsqaUBKTNV-1" vertex="1">
          <mxGeometry x="280" y="10" width="300" height="50" as="geometry" />
        </mxCell>
        <mxCell id="iYRbfxJW5vmaIgBeUqIE-3" style="edgeStyle=orthogonalEdgeStyle;rounded=0;orthogonalLoop=1;jettySize=auto;html=1;entryX=0.5;entryY=0;entryDx=0;entryDy=0;" edge="1" parent="WIyWlLk6GJQsqaUBKTNV-1" source="iYRbfxJW5vmaIgBeUqIE-1" target="iYRbfxJW5vmaIgBeUqIE-2">
          <mxGeometry relative="1" as="geometry" />
        </mxCell>
        <mxCell id="iYRbfxJW5vmaIgBeUqIE-1" value="[rbp - 0x4c] = 0" style="rounded=0;whiteSpace=wrap;html=1;fontSize=10;fillColor=#e1d5e7;strokeColor=#9673a6;" vertex="1" parent="WIyWlLk6GJQsqaUBKTNV-1">
          <mxGeometry x="120" y="80" width="80" height="30" as="geometry" />
        </mxCell>
        <mxCell id="iYRbfxJW5vmaIgBeUqIE-7" style="edgeStyle=orthogonalEdgeStyle;rounded=0;orthogonalLoop=1;jettySize=auto;html=1;entryX=0.5;entryY=0;entryDx=0;entryDy=0;" edge="1" parent="WIyWlLk6GJQsqaUBKTNV-1" source="iYRbfxJW5vmaIgBeUqIE-2" target="iYRbfxJW5vmaIgBeUqIE-4">
          <mxGeometry relative="1" as="geometry" />
        </mxCell>
        <mxCell id="iYRbfxJW5vmaIgBeUqIE-8" value="TRUE" style="edgeLabel;html=1;align=center;verticalAlign=middle;resizable=0;points=[];" vertex="1" connectable="0" parent="iYRbfxJW5vmaIgBeUqIE-7">
          <mxGeometry x="-0.6219" y="1" relative="1" as="geometry">
            <mxPoint x="-1" y="1" as="offset" />
          </mxGeometry>
        </mxCell>
        <mxCell id="iYRbfxJW5vmaIgBeUqIE-155" style="edgeStyle=orthogonalEdgeStyle;rounded=0;orthogonalLoop=1;jettySize=auto;html=1;entryX=0.5;entryY=0;entryDx=0;entryDy=0;" edge="1" parent="WIyWlLk6GJQsqaUBKTNV-1" source="iYRbfxJW5vmaIgBeUqIE-2" target="iYRbfxJW5vmaIgBeUqIE-148">
          <mxGeometry relative="1" as="geometry">
            <mxPoint x="40" y="190" as="targetPoint" />
            <Array as="points">
              <mxPoint x="71" y="175" />
              <mxPoint x="71" y="490" />
              <mxPoint x="160" y="490" />
            </Array>
          </mxGeometry>
        </mxCell>
        <mxCell id="iYRbfxJW5vmaIgBeUqIE-156" value="FALSE" style="edgeLabel;html=1;align=center;verticalAlign=middle;resizable=0;points=[];" vertex="1" connectable="0" parent="iYRbfxJW5vmaIgBeUqIE-155">
          <mxGeometry x="-0.7371" y="-2" relative="1" as="geometry">
            <mxPoint as="offset" />
          </mxGeometry>
        </mxCell>
        <mxCell id="iYRbfxJW5vmaIgBeUqIE-2" value="[rbp - 0x4c] &amp;lt;= 0x12" style="rhombus;whiteSpace=wrap;html=1;fontSize=10;fillColor=#ffe6cc;strokeColor=#d79b00;" vertex="1" parent="WIyWlLk6GJQsqaUBKTNV-1">
          <mxGeometry x="100" y="140" width="120" height="70" as="geometry" />
        </mxCell>
        <mxCell id="iYRbfxJW5vmaIgBeUqIE-5" style="edgeStyle=orthogonalEdgeStyle;rounded=0;orthogonalLoop=1;jettySize=auto;html=1;entryX=1.027;entryY=0.497;entryDx=0;entryDy=0;entryPerimeter=0;exitX=0.5;exitY=1;exitDx=0;exitDy=0;" edge="1" parent="WIyWlLk6GJQsqaUBKTNV-1" source="iYRbfxJW5vmaIgBeUqIE-4" target="iYRbfxJW5vmaIgBeUqIE-2">
          <mxGeometry relative="1" as="geometry">
            <mxPoint x="240" y="150" as="targetPoint" />
            <Array as="points">
              <mxPoint x="160" y="450" />
              <mxPoint x="260" y="450" />
              <mxPoint x="260" y="175" />
            </Array>
          </mxGeometry>
        </mxCell>
        <mxCell id="iYRbfxJW5vmaIgBeUqIE-4" value="&lt;font color=&quot;#ff8800&quot;&gt;eax&lt;/font&gt;&amp;nbsp; = [rbp - 0x4c]&lt;br&gt;&lt;div&gt;&lt;span style=&quot;color: rgb(255, 136, 0); background-color: initial;&quot;&gt;eax&lt;/span&gt;&amp;nbsp;= byte [rbp +&amp;nbsp;&lt;span style=&quot;color: rgb(255, 136, 0);&quot;&gt;rax&lt;/span&gt;&amp;nbsp;- 0x30]&lt;/div&gt;&lt;div&gt;[rbp - 0x4e] =&amp;nbsp;&lt;span style=&quot;color: rgb(255, 136, 0); background-color: initial;&quot;&gt;al&lt;/span&gt;&lt;/div&gt;&lt;div&gt;&amp;nbsp;&lt;span style=&quot;color: rgb(255, 136, 0);&quot;&gt;eax&lt;/span&gt;&amp;nbsp;= 0x25&lt;/div&gt;&lt;div&gt;&lt;span style=&quot;color: rgb(255, 136, 0); background-color: initial;&quot;&gt;eax&lt;/span&gt;&amp;nbsp;-= [rbp - 0x4c]&lt;/div&gt;&lt;div&gt;&lt;span style=&quot;color: rgb(255, 136, 0); background-color: initial;&quot;&gt;eax&lt;/span&gt;&amp;nbsp;= [rbp +&amp;nbsp;&lt;span style=&quot;color: rgb(255, 136, 0);&quot;&gt;rax&lt;/span&gt;&amp;nbsp;- 0x30]&lt;/div&gt;&lt;div&gt;[rbp - 0x4d] =&amp;nbsp;&lt;span style=&quot;color: rgb(255, 136, 0); background-color: initial;&quot;&gt;al&lt;/span&gt;&lt;/div&gt;&lt;div&gt;&lt;span style=&quot;color: rgb(255, 136, 0); background-color: initial;&quot;&gt;eax&lt;/span&gt;&amp;nbsp;= [rbp - 0x4c]&lt;/div&gt;&lt;div&gt;&lt;font color=&quot;#009dff&quot;&gt;edx&lt;/font&gt; = [rbp - 0x4d]&lt;/div&gt;&lt;div&gt;[rbp + &lt;span style=&quot;color: rgb(255, 136, 0);&quot;&gt;rax&lt;/span&gt;&amp;nbsp;- 0x30] =&amp;nbsp;&lt;span style=&quot;color: rgb(0, 157, 255); background-color: initial;&quot;&gt;dl&lt;/span&gt;&lt;/div&gt;&lt;div&gt;&lt;span style=&quot;color: rgb(255, 136, 0); background-color: initial;&quot;&gt;eax&lt;/span&gt;&lt;span style=&quot;color: rgb(0, 157, 255); background-color: initial;&quot;&gt;&amp;nbsp;&lt;/span&gt;&lt;span style=&quot;background-color: initial;&quot;&gt;= 0x25&lt;/span&gt;&lt;/div&gt;&lt;div&gt;&lt;span style=&quot;color: rgb(255, 136, 0); background-color: initial;&quot;&gt;eax&lt;/span&gt;&lt;span style=&quot;color: rgb(0, 157, 255); background-color: initial;&quot;&gt;&amp;nbsp;&lt;/span&gt;&lt;span style=&quot;background-color: initial;&quot;&gt;-= [rbp - 0x4c]&lt;/span&gt;&lt;/div&gt;&lt;div&gt;&lt;span style=&quot;color: rgb(0, 157, 255); background-color: initial;&quot;&gt;edx &lt;/span&gt;&lt;span style=&quot;background-color: initial;&quot;&gt;= [rbp - 0x4e]&lt;/span&gt;&lt;/div&gt;&lt;div&gt;[rbp +&amp;nbsp;&lt;span style=&quot;color: rgb(255, 136, 0); background-color: initial;&quot;&gt;rax&lt;/span&gt;&lt;span style=&quot;background-color: initial;&quot;&gt;&amp;nbsp;- 0x30] =&lt;/span&gt;&lt;font style=&quot;background-color: initial;&quot; color=&quot;#009dff&quot;&gt; dl&lt;/font&gt;&lt;/div&gt;&lt;div&gt;[rbp - 0x4c] += 1&amp;nbsp;&lt;/div&gt;&lt;div&gt;&lt;br&gt;&lt;/div&gt;&lt;div&gt;&lt;br&gt;&lt;/div&gt;&lt;div&gt;&lt;br&gt;&lt;/div&gt;&lt;div&gt;&lt;br&gt;&lt;/div&gt;" style="rounded=0;whiteSpace=wrap;html=1;fontSize=10;fillColor=#bac8d3;strokeColor=#23445d;verticalAlign=top;" vertex="1" parent="WIyWlLk6GJQsqaUBKTNV-1">
          <mxGeometry x="90" y="240" width="140" height="190" as="geometry" />
        </mxCell>
        <mxCell id="iYRbfxJW5vmaIgBeUqIE-39" value="" style="shape=table;startSize=0;container=1;collapsible=0;childLayout=tableLayout;fontSize=8;" vertex="1" parent="WIyWlLk6GJQsqaUBKTNV-1">
          <mxGeometry x="341" y="100" width="438" height="70" as="geometry" />
        </mxCell>
        <mxCell id="iYRbfxJW5vmaIgBeUqIE-40" value="" style="shape=tableRow;horizontal=0;startSize=0;swimlaneHead=0;swimlaneBody=0;strokeColor=inherit;top=0;left=0;bottom=0;right=0;collapsible=0;dropTarget=0;fillColor=none;points=[[0,0.5],[1,0.5]];portConstraint=eastwest;" vertex="1" parent="iYRbfxJW5vmaIgBeUqIE-39">
          <mxGeometry width="438" height="23" as="geometry" />
        </mxCell>
        <mxCell id="iYRbfxJW5vmaIgBeUqIE-138" value="ADDR" style="shape=partialRectangle;html=1;whiteSpace=wrap;connectable=0;strokeColor=inherit;overflow=hidden;fillColor=none;top=0;left=0;bottom=0;right=0;pointerEvents=1;fontSize=6;" vertex="1" parent="iYRbfxJW5vmaIgBeUqIE-40">
          <mxGeometry width="28" height="23" as="geometry">
            <mxRectangle width="28" height="23" as="alternateBounds" />
          </mxGeometry>
        </mxCell>
        <mxCell id="iYRbfxJW5vmaIgBeUqIE-41" value="0X30" style="shape=partialRectangle;html=1;whiteSpace=wrap;connectable=0;strokeColor=inherit;overflow=hidden;fillColor=none;top=0;left=0;bottom=0;right=0;pointerEvents=1;fontSize=6;" vertex="1" parent="iYRbfxJW5vmaIgBeUqIE-40">
          <mxGeometry x="28" width="28" height="23" as="geometry">
            <mxRectangle width="28" height="23" as="alternateBounds" />
          </mxGeometry>
        </mxCell>
        <mxCell id="iYRbfxJW5vmaIgBeUqIE-42" value="0X2F" style="shape=partialRectangle;html=1;whiteSpace=wrap;connectable=0;strokeColor=inherit;overflow=hidden;fillColor=none;top=0;left=0;bottom=0;right=0;pointerEvents=1;fontSize=6;" vertex="1" parent="iYRbfxJW5vmaIgBeUqIE-40">
          <mxGeometry x="56" width="26" height="23" as="geometry">
            <mxRectangle width="26" height="23" as="alternateBounds" />
          </mxGeometry>
        </mxCell>
        <mxCell id="iYRbfxJW5vmaIgBeUqIE-43" value="0X2E" style="shape=partialRectangle;html=1;whiteSpace=wrap;connectable=0;strokeColor=inherit;overflow=hidden;fillColor=none;top=0;left=0;bottom=0;right=0;pointerEvents=1;fontSize=6;" vertex="1" parent="iYRbfxJW5vmaIgBeUqIE-40">
          <mxGeometry x="82" width="28" height="23" as="geometry">
            <mxRectangle width="28" height="23" as="alternateBounds" />
          </mxGeometry>
        </mxCell>
        <mxCell id="iYRbfxJW5vmaIgBeUqIE-44" value="0X2D" style="shape=partialRectangle;html=1;whiteSpace=wrap;connectable=0;strokeColor=inherit;overflow=hidden;fillColor=none;top=0;left=0;bottom=0;right=0;pointerEvents=1;fontSize=6;" vertex="1" parent="iYRbfxJW5vmaIgBeUqIE-40">
          <mxGeometry x="110" width="28" height="23" as="geometry">
            <mxRectangle width="28" height="23" as="alternateBounds" />
          </mxGeometry>
        </mxCell>
        <mxCell id="iYRbfxJW5vmaIgBeUqIE-45" value="0X2C" style="shape=partialRectangle;html=1;whiteSpace=wrap;connectable=0;strokeColor=inherit;overflow=hidden;fillColor=none;top=0;left=0;bottom=0;right=0;pointerEvents=1;fontSize=6;" vertex="1" parent="iYRbfxJW5vmaIgBeUqIE-40">
          <mxGeometry x="138" width="26" height="23" as="geometry">
            <mxRectangle width="26" height="23" as="alternateBounds" />
          </mxGeometry>
        </mxCell>
        <mxCell id="iYRbfxJW5vmaIgBeUqIE-46" value="0X2B" style="shape=partialRectangle;html=1;whiteSpace=wrap;connectable=0;strokeColor=inherit;overflow=hidden;fillColor=none;top=0;left=0;bottom=0;right=0;pointerEvents=1;fontSize=6;" vertex="1" parent="iYRbfxJW5vmaIgBeUqIE-40">
          <mxGeometry x="164" width="28" height="23" as="geometry">
            <mxRectangle width="28" height="23" as="alternateBounds" />
          </mxGeometry>
        </mxCell>
        <mxCell id="iYRbfxJW5vmaIgBeUqIE-47" value="0X2A" style="shape=partialRectangle;html=1;whiteSpace=wrap;connectable=0;strokeColor=inherit;overflow=hidden;fillColor=none;top=0;left=0;bottom=0;right=0;pointerEvents=1;fontSize=6;" vertex="1" parent="iYRbfxJW5vmaIgBeUqIE-40">
          <mxGeometry x="192" width="28" height="23" as="geometry">
            <mxRectangle width="28" height="23" as="alternateBounds" />
          </mxGeometry>
        </mxCell>
        <mxCell id="iYRbfxJW5vmaIgBeUqIE-48" value="0X29" style="shape=partialRectangle;html=1;whiteSpace=wrap;connectable=0;strokeColor=inherit;overflow=hidden;fillColor=none;top=0;left=0;bottom=0;right=0;pointerEvents=1;fontSize=6;" vertex="1" parent="iYRbfxJW5vmaIgBeUqIE-40">
          <mxGeometry x="220" width="26" height="23" as="geometry">
            <mxRectangle width="26" height="23" as="alternateBounds" />
          </mxGeometry>
        </mxCell>
        <mxCell id="iYRbfxJW5vmaIgBeUqIE-49" value="0X28" style="shape=partialRectangle;html=1;whiteSpace=wrap;connectable=0;strokeColor=inherit;overflow=hidden;fillColor=none;top=0;left=0;bottom=0;right=0;pointerEvents=1;fontSize=6;" vertex="1" parent="iYRbfxJW5vmaIgBeUqIE-40">
          <mxGeometry x="246" width="28" height="23" as="geometry">
            <mxRectangle width="28" height="23" as="alternateBounds" />
          </mxGeometry>
        </mxCell>
        <mxCell id="iYRbfxJW5vmaIgBeUqIE-50" value="0X27" style="shape=partialRectangle;html=1;whiteSpace=wrap;connectable=0;strokeColor=inherit;overflow=hidden;fillColor=none;top=0;left=0;bottom=0;right=0;pointerEvents=1;fontSize=6;" vertex="1" parent="iYRbfxJW5vmaIgBeUqIE-40">
          <mxGeometry x="274" width="28" height="23" as="geometry">
            <mxRectangle width="28" height="23" as="alternateBounds" />
          </mxGeometry>
        </mxCell>
        <mxCell id="iYRbfxJW5vmaIgBeUqIE-51" value="0X26" style="shape=partialRectangle;html=1;whiteSpace=wrap;connectable=0;strokeColor=inherit;overflow=hidden;fillColor=none;top=0;left=0;bottom=0;right=0;pointerEvents=1;fontSize=6;" vertex="1" parent="iYRbfxJW5vmaIgBeUqIE-40">
          <mxGeometry x="302" width="26" height="23" as="geometry">
            <mxRectangle width="26" height="23" as="alternateBounds" />
          </mxGeometry>
        </mxCell>
        <mxCell id="iYRbfxJW5vmaIgBeUqIE-52" value="0X25" style="shape=partialRectangle;html=1;whiteSpace=wrap;connectable=0;strokeColor=inherit;overflow=hidden;fillColor=none;top=0;left=0;bottom=0;right=0;pointerEvents=1;fontSize=6;" vertex="1" parent="iYRbfxJW5vmaIgBeUqIE-40">
          <mxGeometry x="328" width="28" height="23" as="geometry">
            <mxRectangle width="28" height="23" as="alternateBounds" />
          </mxGeometry>
        </mxCell>
        <mxCell id="iYRbfxJW5vmaIgBeUqIE-53" value="0X24" style="shape=partialRectangle;html=1;whiteSpace=wrap;connectable=0;strokeColor=inherit;overflow=hidden;fillColor=none;top=0;left=0;bottom=0;right=0;pointerEvents=1;fontSize=6;" vertex="1" parent="iYRbfxJW5vmaIgBeUqIE-40">
          <mxGeometry x="356" width="28" height="23" as="geometry">
            <mxRectangle width="28" height="23" as="alternateBounds" />
          </mxGeometry>
        </mxCell>
        <mxCell id="iYRbfxJW5vmaIgBeUqIE-54" value="0X23" style="shape=partialRectangle;html=1;whiteSpace=wrap;connectable=0;strokeColor=inherit;overflow=hidden;fillColor=none;top=0;left=0;bottom=0;right=0;pointerEvents=1;fontSize=6;" vertex="1" parent="iYRbfxJW5vmaIgBeUqIE-40">
          <mxGeometry x="384" width="26" height="23" as="geometry">
            <mxRectangle width="26" height="23" as="alternateBounds" />
          </mxGeometry>
        </mxCell>
        <mxCell id="iYRbfxJW5vmaIgBeUqIE-55" value="0X22" style="shape=partialRectangle;html=1;whiteSpace=wrap;connectable=0;strokeColor=inherit;overflow=hidden;fillColor=none;top=0;left=0;bottom=0;right=0;pointerEvents=1;fontSize=6;" vertex="1" parent="iYRbfxJW5vmaIgBeUqIE-40">
          <mxGeometry x="410" width="28" height="23" as="geometry">
            <mxRectangle width="28" height="23" as="alternateBounds" />
          </mxGeometry>
        </mxCell>
        <mxCell id="iYRbfxJW5vmaIgBeUqIE-56" value="" style="shape=tableRow;horizontal=0;startSize=0;swimlaneHead=0;swimlaneBody=0;strokeColor=inherit;top=0;left=0;bottom=0;right=0;collapsible=0;dropTarget=0;fillColor=none;points=[[0,0.5],[1,0.5]];portConstraint=eastwest;" vertex="1" parent="iYRbfxJW5vmaIgBeUqIE-39">
          <mxGeometry y="23" width="438" height="24" as="geometry" />
        </mxCell>
        <mxCell id="iYRbfxJW5vmaIgBeUqIE-139" value="START" style="shape=partialRectangle;html=1;whiteSpace=wrap;connectable=0;strokeColor=inherit;overflow=hidden;fillColor=none;top=0;left=0;bottom=0;right=0;pointerEvents=1;fontSize=6;" vertex="1" parent="iYRbfxJW5vmaIgBeUqIE-56">
          <mxGeometry width="28" height="24" as="geometry">
            <mxRectangle width="28" height="24" as="alternateBounds" />
          </mxGeometry>
        </mxCell>
        <mxCell id="iYRbfxJW5vmaIgBeUqIE-57" value="" style="shape=partialRectangle;html=1;whiteSpace=wrap;connectable=0;strokeColor=inherit;overflow=hidden;fillColor=none;top=0;left=0;bottom=0;right=0;pointerEvents=1;fontSize=6;" vertex="1" parent="iYRbfxJW5vmaIgBeUqIE-56">
          <mxGeometry x="28" width="28" height="24" as="geometry">
            <mxRectangle width="28" height="24" as="alternateBounds" />
          </mxGeometry>
        </mxCell>
        <mxCell id="iYRbfxJW5vmaIgBeUqIE-58" value="" style="shape=partialRectangle;html=1;whiteSpace=wrap;connectable=0;strokeColor=inherit;overflow=hidden;fillColor=none;top=0;left=0;bottom=0;right=0;pointerEvents=1;fontSize=6;" vertex="1" parent="iYRbfxJW5vmaIgBeUqIE-56">
          <mxGeometry x="56" width="26" height="24" as="geometry">
            <mxRectangle width="26" height="24" as="alternateBounds" />
          </mxGeometry>
        </mxCell>
        <mxCell id="iYRbfxJW5vmaIgBeUqIE-59" value="" style="shape=partialRectangle;html=1;whiteSpace=wrap;connectable=0;strokeColor=inherit;overflow=hidden;fillColor=none;top=0;left=0;bottom=0;right=0;pointerEvents=1;fontSize=6;" vertex="1" parent="iYRbfxJW5vmaIgBeUqIE-56">
          <mxGeometry x="82" width="28" height="24" as="geometry">
            <mxRectangle width="28" height="24" as="alternateBounds" />
          </mxGeometry>
        </mxCell>
        <mxCell id="iYRbfxJW5vmaIgBeUqIE-60" value="" style="shape=partialRectangle;html=1;whiteSpace=wrap;connectable=0;strokeColor=inherit;overflow=hidden;fillColor=none;top=0;left=0;bottom=0;right=0;pointerEvents=1;fontSize=6;" vertex="1" parent="iYRbfxJW5vmaIgBeUqIE-56">
          <mxGeometry x="110" width="28" height="24" as="geometry">
            <mxRectangle width="28" height="24" as="alternateBounds" />
          </mxGeometry>
        </mxCell>
        <mxCell id="iYRbfxJW5vmaIgBeUqIE-61" value="" style="shape=partialRectangle;html=1;whiteSpace=wrap;connectable=0;strokeColor=inherit;overflow=hidden;fillColor=none;top=0;left=0;bottom=0;right=0;pointerEvents=1;fontSize=6;" vertex="1" parent="iYRbfxJW5vmaIgBeUqIE-56">
          <mxGeometry x="138" width="26" height="24" as="geometry">
            <mxRectangle width="26" height="24" as="alternateBounds" />
          </mxGeometry>
        </mxCell>
        <mxCell id="iYRbfxJW5vmaIgBeUqIE-62" value="" style="shape=partialRectangle;html=1;whiteSpace=wrap;connectable=0;strokeColor=inherit;overflow=hidden;fillColor=none;top=0;left=0;bottom=0;right=0;pointerEvents=1;fontSize=6;" vertex="1" parent="iYRbfxJW5vmaIgBeUqIE-56">
          <mxGeometry x="164" width="28" height="24" as="geometry">
            <mxRectangle width="28" height="24" as="alternateBounds" />
          </mxGeometry>
        </mxCell>
        <mxCell id="iYRbfxJW5vmaIgBeUqIE-63" value="" style="shape=partialRectangle;html=1;whiteSpace=wrap;connectable=0;strokeColor=inherit;overflow=hidden;fillColor=none;top=0;left=0;bottom=0;right=0;pointerEvents=1;fontSize=6;" vertex="1" parent="iYRbfxJW5vmaIgBeUqIE-56">
          <mxGeometry x="192" width="28" height="24" as="geometry">
            <mxRectangle width="28" height="24" as="alternateBounds" />
          </mxGeometry>
        </mxCell>
        <mxCell id="iYRbfxJW5vmaIgBeUqIE-64" value="" style="shape=partialRectangle;html=1;whiteSpace=wrap;connectable=0;strokeColor=inherit;overflow=hidden;fillColor=none;top=0;left=0;bottom=0;right=0;pointerEvents=1;fontSize=6;" vertex="1" parent="iYRbfxJW5vmaIgBeUqIE-56">
          <mxGeometry x="220" width="26" height="24" as="geometry">
            <mxRectangle width="26" height="24" as="alternateBounds" />
          </mxGeometry>
        </mxCell>
        <mxCell id="iYRbfxJW5vmaIgBeUqIE-65" value="" style="shape=partialRectangle;html=1;whiteSpace=wrap;connectable=0;strokeColor=inherit;overflow=hidden;fillColor=none;top=0;left=0;bottom=0;right=0;pointerEvents=1;fontSize=6;" vertex="1" parent="iYRbfxJW5vmaIgBeUqIE-56">
          <mxGeometry x="246" width="28" height="24" as="geometry">
            <mxRectangle width="28" height="24" as="alternateBounds" />
          </mxGeometry>
        </mxCell>
        <mxCell id="iYRbfxJW5vmaIgBeUqIE-66" value="" style="shape=partialRectangle;html=1;whiteSpace=wrap;connectable=0;strokeColor=inherit;overflow=hidden;fillColor=none;top=0;left=0;bottom=0;right=0;pointerEvents=1;fontSize=6;" vertex="1" parent="iYRbfxJW5vmaIgBeUqIE-56">
          <mxGeometry x="274" width="28" height="24" as="geometry">
            <mxRectangle width="28" height="24" as="alternateBounds" />
          </mxGeometry>
        </mxCell>
        <mxCell id="iYRbfxJW5vmaIgBeUqIE-67" value="" style="shape=partialRectangle;html=1;whiteSpace=wrap;connectable=0;strokeColor=inherit;overflow=hidden;fillColor=none;top=0;left=0;bottom=0;right=0;pointerEvents=1;fontSize=6;" vertex="1" parent="iYRbfxJW5vmaIgBeUqIE-56">
          <mxGeometry x="302" width="26" height="24" as="geometry">
            <mxRectangle width="26" height="24" as="alternateBounds" />
          </mxGeometry>
        </mxCell>
        <mxCell id="iYRbfxJW5vmaIgBeUqIE-68" value="" style="shape=partialRectangle;html=1;whiteSpace=wrap;connectable=0;strokeColor=inherit;overflow=hidden;fillColor=none;top=0;left=0;bottom=0;right=0;pointerEvents=1;fontSize=6;" vertex="1" parent="iYRbfxJW5vmaIgBeUqIE-56">
          <mxGeometry x="328" width="28" height="24" as="geometry">
            <mxRectangle width="28" height="24" as="alternateBounds" />
          </mxGeometry>
        </mxCell>
        <mxCell id="iYRbfxJW5vmaIgBeUqIE-69" value="" style="shape=partialRectangle;html=1;whiteSpace=wrap;connectable=0;strokeColor=inherit;overflow=hidden;fillColor=none;top=0;left=0;bottom=0;right=0;pointerEvents=1;fontSize=6;" vertex="1" parent="iYRbfxJW5vmaIgBeUqIE-56">
          <mxGeometry x="356" width="28" height="24" as="geometry">
            <mxRectangle width="28" height="24" as="alternateBounds" />
          </mxGeometry>
        </mxCell>
        <mxCell id="iYRbfxJW5vmaIgBeUqIE-70" value="" style="shape=partialRectangle;html=1;whiteSpace=wrap;connectable=0;strokeColor=inherit;overflow=hidden;fillColor=none;top=0;left=0;bottom=0;right=0;pointerEvents=1;fontSize=6;" vertex="1" parent="iYRbfxJW5vmaIgBeUqIE-56">
          <mxGeometry x="384" width="26" height="24" as="geometry">
            <mxRectangle width="26" height="24" as="alternateBounds" />
          </mxGeometry>
        </mxCell>
        <mxCell id="iYRbfxJW5vmaIgBeUqIE-71" value="" style="shape=partialRectangle;html=1;whiteSpace=wrap;connectable=0;strokeColor=inherit;overflow=hidden;fillColor=none;top=0;left=0;bottom=0;right=0;pointerEvents=1;fontSize=6;" vertex="1" parent="iYRbfxJW5vmaIgBeUqIE-56">
          <mxGeometry x="410" width="28" height="24" as="geometry">
            <mxRectangle width="28" height="24" as="alternateBounds" />
          </mxGeometry>
        </mxCell>
        <mxCell id="iYRbfxJW5vmaIgBeUqIE-72" value="" style="shape=tableRow;horizontal=0;startSize=0;swimlaneHead=0;swimlaneBody=0;strokeColor=inherit;top=0;left=0;bottom=0;right=0;collapsible=0;dropTarget=0;fillColor=none;points=[[0,0.5],[1,0.5]];portConstraint=eastwest;" vertex="1" parent="iYRbfxJW5vmaIgBeUqIE-39">
          <mxGeometry y="47" width="438" height="23" as="geometry" />
        </mxCell>
        <mxCell id="iYRbfxJW5vmaIgBeUqIE-140" value="FIN" style="shape=partialRectangle;html=1;whiteSpace=wrap;connectable=0;strokeColor=inherit;overflow=hidden;fillColor=none;top=0;left=0;bottom=0;right=0;pointerEvents=1;fontSize=6;" vertex="1" parent="iYRbfxJW5vmaIgBeUqIE-72">
          <mxGeometry width="28" height="23" as="geometry">
            <mxRectangle width="28" height="23" as="alternateBounds" />
          </mxGeometry>
        </mxCell>
        <mxCell id="iYRbfxJW5vmaIgBeUqIE-73" value="" style="shape=partialRectangle;html=1;whiteSpace=wrap;connectable=0;strokeColor=inherit;overflow=hidden;fillColor=none;top=0;left=0;bottom=0;right=0;pointerEvents=1;fontSize=6;" vertex="1" parent="iYRbfxJW5vmaIgBeUqIE-72">
          <mxGeometry x="28" width="28" height="23" as="geometry">
            <mxRectangle width="28" height="23" as="alternateBounds" />
          </mxGeometry>
        </mxCell>
        <mxCell id="iYRbfxJW5vmaIgBeUqIE-74" value="" style="shape=partialRectangle;html=1;whiteSpace=wrap;connectable=0;strokeColor=inherit;overflow=hidden;fillColor=none;top=0;left=0;bottom=0;right=0;pointerEvents=1;fontSize=6;" vertex="1" parent="iYRbfxJW5vmaIgBeUqIE-72">
          <mxGeometry x="56" width="26" height="23" as="geometry">
            <mxRectangle width="26" height="23" as="alternateBounds" />
          </mxGeometry>
        </mxCell>
        <mxCell id="iYRbfxJW5vmaIgBeUqIE-75" value="" style="shape=partialRectangle;html=1;whiteSpace=wrap;connectable=0;strokeColor=inherit;overflow=hidden;fillColor=none;top=0;left=0;bottom=0;right=0;pointerEvents=1;fontSize=6;" vertex="1" parent="iYRbfxJW5vmaIgBeUqIE-72">
          <mxGeometry x="82" width="28" height="23" as="geometry">
            <mxRectangle width="28" height="23" as="alternateBounds" />
          </mxGeometry>
        </mxCell>
        <mxCell id="iYRbfxJW5vmaIgBeUqIE-76" value="" style="shape=partialRectangle;html=1;whiteSpace=wrap;connectable=0;strokeColor=inherit;overflow=hidden;fillColor=none;top=0;left=0;bottom=0;right=0;pointerEvents=1;fontSize=6;" vertex="1" parent="iYRbfxJW5vmaIgBeUqIE-72">
          <mxGeometry x="110" width="28" height="23" as="geometry">
            <mxRectangle width="28" height="23" as="alternateBounds" />
          </mxGeometry>
        </mxCell>
        <mxCell id="iYRbfxJW5vmaIgBeUqIE-77" value="" style="shape=partialRectangle;html=1;whiteSpace=wrap;connectable=0;strokeColor=inherit;overflow=hidden;fillColor=none;top=0;left=0;bottom=0;right=0;pointerEvents=1;fontSize=6;" vertex="1" parent="iYRbfxJW5vmaIgBeUqIE-72">
          <mxGeometry x="138" width="26" height="23" as="geometry">
            <mxRectangle width="26" height="23" as="alternateBounds" />
          </mxGeometry>
        </mxCell>
        <mxCell id="iYRbfxJW5vmaIgBeUqIE-78" value="" style="shape=partialRectangle;html=1;whiteSpace=wrap;connectable=0;strokeColor=inherit;overflow=hidden;fillColor=none;top=0;left=0;bottom=0;right=0;pointerEvents=1;fontSize=6;" vertex="1" parent="iYRbfxJW5vmaIgBeUqIE-72">
          <mxGeometry x="164" width="28" height="23" as="geometry">
            <mxRectangle width="28" height="23" as="alternateBounds" />
          </mxGeometry>
        </mxCell>
        <mxCell id="iYRbfxJW5vmaIgBeUqIE-79" value="" style="shape=partialRectangle;html=1;whiteSpace=wrap;connectable=0;strokeColor=inherit;overflow=hidden;fillColor=none;top=0;left=0;bottom=0;right=0;pointerEvents=1;fontSize=6;" vertex="1" parent="iYRbfxJW5vmaIgBeUqIE-72">
          <mxGeometry x="192" width="28" height="23" as="geometry">
            <mxRectangle width="28" height="23" as="alternateBounds" />
          </mxGeometry>
        </mxCell>
        <mxCell id="iYRbfxJW5vmaIgBeUqIE-80" value="" style="shape=partialRectangle;html=1;whiteSpace=wrap;connectable=0;strokeColor=inherit;overflow=hidden;fillColor=none;top=0;left=0;bottom=0;right=0;pointerEvents=1;fontSize=6;" vertex="1" parent="iYRbfxJW5vmaIgBeUqIE-72">
          <mxGeometry x="220" width="26" height="23" as="geometry">
            <mxRectangle width="26" height="23" as="alternateBounds" />
          </mxGeometry>
        </mxCell>
        <mxCell id="iYRbfxJW5vmaIgBeUqIE-81" value="" style="shape=partialRectangle;html=1;whiteSpace=wrap;connectable=0;strokeColor=inherit;overflow=hidden;fillColor=none;top=0;left=0;bottom=0;right=0;pointerEvents=1;fontSize=6;" vertex="1" parent="iYRbfxJW5vmaIgBeUqIE-72">
          <mxGeometry x="246" width="28" height="23" as="geometry">
            <mxRectangle width="28" height="23" as="alternateBounds" />
          </mxGeometry>
        </mxCell>
        <mxCell id="iYRbfxJW5vmaIgBeUqIE-82" value="" style="shape=partialRectangle;html=1;whiteSpace=wrap;connectable=0;strokeColor=inherit;overflow=hidden;fillColor=none;top=0;left=0;bottom=0;right=0;pointerEvents=1;fontSize=6;" vertex="1" parent="iYRbfxJW5vmaIgBeUqIE-72">
          <mxGeometry x="274" width="28" height="23" as="geometry">
            <mxRectangle width="28" height="23" as="alternateBounds" />
          </mxGeometry>
        </mxCell>
        <mxCell id="iYRbfxJW5vmaIgBeUqIE-83" value="" style="shape=partialRectangle;html=1;whiteSpace=wrap;connectable=0;strokeColor=inherit;overflow=hidden;fillColor=none;top=0;left=0;bottom=0;right=0;pointerEvents=1;fontSize=6;" vertex="1" parent="iYRbfxJW5vmaIgBeUqIE-72">
          <mxGeometry x="302" width="26" height="23" as="geometry">
            <mxRectangle width="26" height="23" as="alternateBounds" />
          </mxGeometry>
        </mxCell>
        <mxCell id="iYRbfxJW5vmaIgBeUqIE-84" value="" style="shape=partialRectangle;html=1;whiteSpace=wrap;connectable=0;strokeColor=inherit;overflow=hidden;fillColor=none;top=0;left=0;bottom=0;right=0;pointerEvents=1;fontSize=6;" vertex="1" parent="iYRbfxJW5vmaIgBeUqIE-72">
          <mxGeometry x="328" width="28" height="23" as="geometry">
            <mxRectangle width="28" height="23" as="alternateBounds" />
          </mxGeometry>
        </mxCell>
        <mxCell id="iYRbfxJW5vmaIgBeUqIE-85" value="" style="shape=partialRectangle;html=1;whiteSpace=wrap;connectable=0;strokeColor=inherit;overflow=hidden;fillColor=none;top=0;left=0;bottom=0;right=0;pointerEvents=1;fontSize=6;" vertex="1" parent="iYRbfxJW5vmaIgBeUqIE-72">
          <mxGeometry x="356" width="28" height="23" as="geometry">
            <mxRectangle width="28" height="23" as="alternateBounds" />
          </mxGeometry>
        </mxCell>
        <mxCell id="iYRbfxJW5vmaIgBeUqIE-86" value="" style="shape=partialRectangle;html=1;whiteSpace=wrap;connectable=0;strokeColor=inherit;overflow=hidden;fillColor=none;top=0;left=0;bottom=0;right=0;pointerEvents=1;fontSize=6;" vertex="1" parent="iYRbfxJW5vmaIgBeUqIE-72">
          <mxGeometry x="384" width="26" height="23" as="geometry">
            <mxRectangle width="26" height="23" as="alternateBounds" />
          </mxGeometry>
        </mxCell>
        <mxCell id="iYRbfxJW5vmaIgBeUqIE-87" value="" style="shape=partialRectangle;html=1;whiteSpace=wrap;connectable=0;strokeColor=inherit;overflow=hidden;fillColor=none;top=0;left=0;bottom=0;right=0;pointerEvents=1;fontSize=6;" vertex="1" parent="iYRbfxJW5vmaIgBeUqIE-72">
          <mxGeometry x="410" width="28" height="23" as="geometry">
            <mxRectangle width="28" height="23" as="alternateBounds" />
          </mxGeometry>
        </mxCell>
        <mxCell id="iYRbfxJW5vmaIgBeUqIE-89" value="" style="shape=table;startSize=0;container=1;collapsible=0;childLayout=tableLayout;fontSize=8;" vertex="1" parent="WIyWlLk6GJQsqaUBKTNV-1">
          <mxGeometry x="341" y="190" width="438" height="70" as="geometry" />
        </mxCell>
        <mxCell id="iYRbfxJW5vmaIgBeUqIE-90" value="" style="shape=tableRow;horizontal=0;startSize=0;swimlaneHead=0;swimlaneBody=0;strokeColor=inherit;top=0;left=0;bottom=0;right=0;collapsible=0;dropTarget=0;fillColor=none;points=[[0,0.5],[1,0.5]];portConstraint=eastwest;" vertex="1" parent="iYRbfxJW5vmaIgBeUqIE-89">
          <mxGeometry width="438" height="23" as="geometry" />
        </mxCell>
        <mxCell id="iYRbfxJW5vmaIgBeUqIE-91" value="ADDR" style="shape=partialRectangle;html=1;whiteSpace=wrap;connectable=0;strokeColor=inherit;overflow=hidden;fillColor=none;top=0;left=0;bottom=0;right=0;pointerEvents=1;fontSize=6;" vertex="1" parent="iYRbfxJW5vmaIgBeUqIE-90">
          <mxGeometry width="28" height="23" as="geometry">
            <mxRectangle width="28" height="23" as="alternateBounds" />
          </mxGeometry>
        </mxCell>
        <mxCell id="iYRbfxJW5vmaIgBeUqIE-92" value="0X21" style="shape=partialRectangle;html=1;whiteSpace=wrap;connectable=0;strokeColor=inherit;overflow=hidden;fillColor=none;top=0;left=0;bottom=0;right=0;pointerEvents=1;fontSize=6;" vertex="1" parent="iYRbfxJW5vmaIgBeUqIE-90">
          <mxGeometry x="28" width="26" height="23" as="geometry">
            <mxRectangle width="26" height="23" as="alternateBounds" />
          </mxGeometry>
        </mxCell>
        <mxCell id="iYRbfxJW5vmaIgBeUqIE-93" value="0X20" style="shape=partialRectangle;html=1;whiteSpace=wrap;connectable=0;strokeColor=inherit;overflow=hidden;fillColor=none;top=0;left=0;bottom=0;right=0;pointerEvents=1;fontSize=6;" vertex="1" parent="iYRbfxJW5vmaIgBeUqIE-90">
          <mxGeometry x="54" width="28" height="23" as="geometry">
            <mxRectangle width="28" height="23" as="alternateBounds" />
          </mxGeometry>
        </mxCell>
        <mxCell id="iYRbfxJW5vmaIgBeUqIE-94" value="0X1F" style="shape=partialRectangle;html=1;whiteSpace=wrap;connectable=0;strokeColor=inherit;overflow=hidden;fillColor=none;top=0;left=0;bottom=0;right=0;pointerEvents=1;fontSize=6;" vertex="1" parent="iYRbfxJW5vmaIgBeUqIE-90">
          <mxGeometry x="82" width="28" height="23" as="geometry">
            <mxRectangle width="28" height="23" as="alternateBounds" />
          </mxGeometry>
        </mxCell>
        <mxCell id="iYRbfxJW5vmaIgBeUqIE-95" value="0X1E" style="shape=partialRectangle;html=1;whiteSpace=wrap;connectable=0;strokeColor=inherit;overflow=hidden;fillColor=none;top=0;left=0;bottom=0;right=0;pointerEvents=1;fontSize=6;" vertex="1" parent="iYRbfxJW5vmaIgBeUqIE-90">
          <mxGeometry x="110" width="26" height="23" as="geometry">
            <mxRectangle width="26" height="23" as="alternateBounds" />
          </mxGeometry>
        </mxCell>
        <mxCell id="iYRbfxJW5vmaIgBeUqIE-96" value="0X1D" style="shape=partialRectangle;html=1;whiteSpace=wrap;connectable=0;strokeColor=inherit;overflow=hidden;fillColor=none;top=0;left=0;bottom=0;right=0;pointerEvents=1;fontSize=6;" vertex="1" parent="iYRbfxJW5vmaIgBeUqIE-90">
          <mxGeometry x="136" width="28" height="23" as="geometry">
            <mxRectangle width="28" height="23" as="alternateBounds" />
          </mxGeometry>
        </mxCell>
        <mxCell id="iYRbfxJW5vmaIgBeUqIE-97" value="0X1C" style="shape=partialRectangle;html=1;whiteSpace=wrap;connectable=0;strokeColor=inherit;overflow=hidden;fillColor=none;top=0;left=0;bottom=0;right=0;pointerEvents=1;fontSize=6;" vertex="1" parent="iYRbfxJW5vmaIgBeUqIE-90">
          <mxGeometry x="164" width="28" height="23" as="geometry">
            <mxRectangle width="28" height="23" as="alternateBounds" />
          </mxGeometry>
        </mxCell>
        <mxCell id="iYRbfxJW5vmaIgBeUqIE-98" value="&lt;span style=&quot;color: rgb(0, 0, 0); font-family: Helvetica; font-size: 6px; font-style: normal; font-variant-ligatures: normal; font-variant-caps: normal; font-weight: 400; letter-spacing: normal; orphans: 2; text-align: center; text-indent: 0px; text-transform: none; widows: 2; word-spacing: 0px; -webkit-text-stroke-width: 0px; white-space: normal; background-color: rgb(251, 251, 251); text-decoration-thickness: initial; text-decoration-style: initial; text-decoration-color: initial; display: inline !important; float: none;&quot;&gt;0X1B&lt;/span&gt;" style="shape=partialRectangle;html=1;whiteSpace=wrap;connectable=0;strokeColor=inherit;overflow=hidden;fillColor=none;top=0;left=0;bottom=0;right=0;pointerEvents=1;fontSize=6;" vertex="1" parent="iYRbfxJW5vmaIgBeUqIE-90">
          <mxGeometry x="192" width="26" height="23" as="geometry">
            <mxRectangle width="26" height="23" as="alternateBounds" />
          </mxGeometry>
        </mxCell>
        <mxCell id="iYRbfxJW5vmaIgBeUqIE-99" value="&lt;span style=&quot;color: rgb(0, 0, 0); font-family: Helvetica; font-size: 6px; font-style: normal; font-variant-ligatures: normal; font-variant-caps: normal; font-weight: 400; letter-spacing: normal; orphans: 2; text-align: center; text-indent: 0px; text-transform: none; widows: 2; word-spacing: 0px; -webkit-text-stroke-width: 0px; white-space: normal; background-color: rgb(251, 251, 251); text-decoration-thickness: initial; text-decoration-style: initial; text-decoration-color: initial; display: inline !important; float: none;&quot;&gt;0X1A&lt;/span&gt;" style="shape=partialRectangle;html=1;whiteSpace=wrap;connectable=0;strokeColor=inherit;overflow=hidden;fillColor=none;top=0;left=0;bottom=0;right=0;pointerEvents=1;fontSize=6;" vertex="1" parent="iYRbfxJW5vmaIgBeUqIE-90">
          <mxGeometry x="218" width="28" height="23" as="geometry">
            <mxRectangle width="28" height="23" as="alternateBounds" />
          </mxGeometry>
        </mxCell>
        <mxCell id="iYRbfxJW5vmaIgBeUqIE-100" value="&lt;span style=&quot;color: rgb(0, 0, 0); font-family: Helvetica; font-size: 6px; font-style: normal; font-variant-ligatures: normal; font-variant-caps: normal; font-weight: 400; letter-spacing: normal; orphans: 2; text-align: center; text-indent: 0px; text-transform: none; widows: 2; word-spacing: 0px; -webkit-text-stroke-width: 0px; white-space: normal; background-color: rgb(251, 251, 251); text-decoration-thickness: initial; text-decoration-style: initial; text-decoration-color: initial; display: inline !important; float: none;&quot;&gt;0X19&lt;/span&gt;" style="shape=partialRectangle;html=1;whiteSpace=wrap;connectable=0;strokeColor=inherit;overflow=hidden;fillColor=none;top=0;left=0;bottom=0;right=0;pointerEvents=1;fontSize=6;" vertex="1" parent="iYRbfxJW5vmaIgBeUqIE-90">
          <mxGeometry x="246" width="28" height="23" as="geometry">
            <mxRectangle width="28" height="23" as="alternateBounds" />
          </mxGeometry>
        </mxCell>
        <mxCell id="iYRbfxJW5vmaIgBeUqIE-101" value="&lt;span style=&quot;color: rgb(0, 0, 0); font-family: Helvetica; font-size: 6px; font-style: normal; font-variant-ligatures: normal; font-variant-caps: normal; font-weight: 400; letter-spacing: normal; orphans: 2; text-align: center; text-indent: 0px; text-transform: none; widows: 2; word-spacing: 0px; -webkit-text-stroke-width: 0px; white-space: normal; background-color: rgb(251, 251, 251); text-decoration-thickness: initial; text-decoration-style: initial; text-decoration-color: initial; display: inline !important; float: none;&quot;&gt;0X18&lt;/span&gt;" style="shape=partialRectangle;html=1;whiteSpace=wrap;connectable=0;strokeColor=inherit;overflow=hidden;fillColor=none;top=0;left=0;bottom=0;right=0;pointerEvents=1;fontSize=6;" vertex="1" parent="iYRbfxJW5vmaIgBeUqIE-90">
          <mxGeometry x="274" width="26" height="23" as="geometry">
            <mxRectangle width="26" height="23" as="alternateBounds" />
          </mxGeometry>
        </mxCell>
        <mxCell id="iYRbfxJW5vmaIgBeUqIE-102" value="&lt;span style=&quot;color: rgb(0, 0, 0); font-family: Helvetica; font-size: 6px; font-style: normal; font-variant-ligatures: normal; font-variant-caps: normal; font-weight: 400; letter-spacing: normal; orphans: 2; text-align: center; text-indent: 0px; text-transform: none; widows: 2; word-spacing: 0px; -webkit-text-stroke-width: 0px; white-space: normal; background-color: rgb(251, 251, 251); text-decoration-thickness: initial; text-decoration-style: initial; text-decoration-color: initial; display: inline !important; float: none;&quot;&gt;0X17&lt;/span&gt;" style="shape=partialRectangle;html=1;whiteSpace=wrap;connectable=0;strokeColor=inherit;overflow=hidden;fillColor=none;top=0;left=0;bottom=0;right=0;pointerEvents=1;fontSize=6;" vertex="1" parent="iYRbfxJW5vmaIgBeUqIE-90">
          <mxGeometry x="300" width="28" height="23" as="geometry">
            <mxRectangle width="28" height="23" as="alternateBounds" />
          </mxGeometry>
        </mxCell>
        <mxCell id="iYRbfxJW5vmaIgBeUqIE-103" value="&lt;span style=&quot;color: rgb(0, 0, 0); font-family: Helvetica; font-size: 6px; font-style: normal; font-variant-ligatures: normal; font-variant-caps: normal; font-weight: 400; letter-spacing: normal; orphans: 2; text-align: center; text-indent: 0px; text-transform: none; widows: 2; word-spacing: 0px; -webkit-text-stroke-width: 0px; white-space: normal; background-color: rgb(251, 251, 251); text-decoration-thickness: initial; text-decoration-style: initial; text-decoration-color: initial; display: inline !important; float: none;&quot;&gt;0X16&lt;/span&gt;" style="shape=partialRectangle;html=1;whiteSpace=wrap;connectable=0;strokeColor=inherit;overflow=hidden;fillColor=none;top=0;left=0;bottom=0;right=0;pointerEvents=1;fontSize=6;" vertex="1" parent="iYRbfxJW5vmaIgBeUqIE-90">
          <mxGeometry x="328" width="28" height="23" as="geometry">
            <mxRectangle width="28" height="23" as="alternateBounds" />
          </mxGeometry>
        </mxCell>
        <mxCell id="iYRbfxJW5vmaIgBeUqIE-104" value="&lt;span style=&quot;color: rgb(0, 0, 0); font-family: Helvetica; font-size: 6px; font-style: normal; font-variant-ligatures: normal; font-variant-caps: normal; font-weight: 400; letter-spacing: normal; orphans: 2; text-align: center; text-indent: 0px; text-transform: none; widows: 2; word-spacing: 0px; -webkit-text-stroke-width: 0px; white-space: normal; background-color: rgb(251, 251, 251); text-decoration-thickness: initial; text-decoration-style: initial; text-decoration-color: initial; display: inline !important; float: none;&quot;&gt;0X15&lt;/span&gt;" style="shape=partialRectangle;html=1;whiteSpace=wrap;connectable=0;strokeColor=inherit;overflow=hidden;fillColor=none;top=0;left=0;bottom=0;right=0;pointerEvents=1;fontSize=6;" vertex="1" parent="iYRbfxJW5vmaIgBeUqIE-90">
          <mxGeometry x="356" width="26" height="23" as="geometry">
            <mxRectangle width="26" height="23" as="alternateBounds" />
          </mxGeometry>
        </mxCell>
        <mxCell id="iYRbfxJW5vmaIgBeUqIE-105" value="&lt;span style=&quot;color: rgb(0, 0, 0); font-family: Helvetica; font-size: 6px; font-style: normal; font-variant-ligatures: normal; font-variant-caps: normal; font-weight: 400; letter-spacing: normal; orphans: 2; text-align: center; text-indent: 0px; text-transform: none; widows: 2; word-spacing: 0px; -webkit-text-stroke-width: 0px; white-space: normal; background-color: rgb(251, 251, 251); text-decoration-thickness: initial; text-decoration-style: initial; text-decoration-color: initial; display: inline !important; float: none;&quot;&gt;0X14&lt;/span&gt;" style="shape=partialRectangle;html=1;whiteSpace=wrap;connectable=0;strokeColor=inherit;overflow=hidden;fillColor=none;top=0;left=0;bottom=0;right=0;pointerEvents=1;fontSize=6;" vertex="1" parent="iYRbfxJW5vmaIgBeUqIE-90">
          <mxGeometry x="382" width="28" height="23" as="geometry">
            <mxRectangle width="28" height="23" as="alternateBounds" />
          </mxGeometry>
        </mxCell>
        <mxCell id="iYRbfxJW5vmaIgBeUqIE-143" value="0X13" style="shape=partialRectangle;html=1;whiteSpace=wrap;connectable=0;strokeColor=inherit;overflow=hidden;fillColor=none;top=0;left=0;bottom=0;right=0;pointerEvents=1;fontSize=6;" vertex="1" parent="iYRbfxJW5vmaIgBeUqIE-90">
          <mxGeometry x="410" width="28" height="23" as="geometry">
            <mxRectangle width="28" height="23" as="alternateBounds" />
          </mxGeometry>
        </mxCell>
        <mxCell id="iYRbfxJW5vmaIgBeUqIE-106" value="" style="shape=tableRow;horizontal=0;startSize=0;swimlaneHead=0;swimlaneBody=0;strokeColor=inherit;top=0;left=0;bottom=0;right=0;collapsible=0;dropTarget=0;fillColor=none;points=[[0,0.5],[1,0.5]];portConstraint=eastwest;" vertex="1" parent="iYRbfxJW5vmaIgBeUqIE-89">
          <mxGeometry y="23" width="438" height="24" as="geometry" />
        </mxCell>
        <mxCell id="iYRbfxJW5vmaIgBeUqIE-107" value="START" style="shape=partialRectangle;html=1;whiteSpace=wrap;connectable=0;strokeColor=inherit;overflow=hidden;fillColor=none;top=0;left=0;bottom=0;right=0;pointerEvents=1;fontSize=6;" vertex="1" parent="iYRbfxJW5vmaIgBeUqIE-106">
          <mxGeometry width="28" height="24" as="geometry">
            <mxRectangle width="28" height="24" as="alternateBounds" />
          </mxGeometry>
        </mxCell>
        <mxCell id="iYRbfxJW5vmaIgBeUqIE-108" value="" style="shape=partialRectangle;html=1;whiteSpace=wrap;connectable=0;strokeColor=inherit;overflow=hidden;fillColor=none;top=0;left=0;bottom=0;right=0;pointerEvents=1;fontSize=6;" vertex="1" parent="iYRbfxJW5vmaIgBeUqIE-106">
          <mxGeometry x="28" width="26" height="24" as="geometry">
            <mxRectangle width="26" height="24" as="alternateBounds" />
          </mxGeometry>
        </mxCell>
        <mxCell id="iYRbfxJW5vmaIgBeUqIE-109" value="" style="shape=partialRectangle;html=1;whiteSpace=wrap;connectable=0;strokeColor=inherit;overflow=hidden;fillColor=none;top=0;left=0;bottom=0;right=0;pointerEvents=1;fontSize=6;" vertex="1" parent="iYRbfxJW5vmaIgBeUqIE-106">
          <mxGeometry x="54" width="28" height="24" as="geometry">
            <mxRectangle width="28" height="24" as="alternateBounds" />
          </mxGeometry>
        </mxCell>
        <mxCell id="iYRbfxJW5vmaIgBeUqIE-110" value="" style="shape=partialRectangle;html=1;whiteSpace=wrap;connectable=0;strokeColor=inherit;overflow=hidden;fillColor=none;top=0;left=0;bottom=0;right=0;pointerEvents=1;fontSize=6;" vertex="1" parent="iYRbfxJW5vmaIgBeUqIE-106">
          <mxGeometry x="82" width="28" height="24" as="geometry">
            <mxRectangle width="28" height="24" as="alternateBounds" />
          </mxGeometry>
        </mxCell>
        <mxCell id="iYRbfxJW5vmaIgBeUqIE-111" value="" style="shape=partialRectangle;html=1;whiteSpace=wrap;connectable=0;strokeColor=inherit;overflow=hidden;fillColor=none;top=0;left=0;bottom=0;right=0;pointerEvents=1;fontSize=6;" vertex="1" parent="iYRbfxJW5vmaIgBeUqIE-106">
          <mxGeometry x="110" width="26" height="24" as="geometry">
            <mxRectangle width="26" height="24" as="alternateBounds" />
          </mxGeometry>
        </mxCell>
        <mxCell id="iYRbfxJW5vmaIgBeUqIE-112" value="" style="shape=partialRectangle;html=1;whiteSpace=wrap;connectable=0;strokeColor=inherit;overflow=hidden;fillColor=none;top=0;left=0;bottom=0;right=0;pointerEvents=1;fontSize=6;" vertex="1" parent="iYRbfxJW5vmaIgBeUqIE-106">
          <mxGeometry x="136" width="28" height="24" as="geometry">
            <mxRectangle width="28" height="24" as="alternateBounds" />
          </mxGeometry>
        </mxCell>
        <mxCell id="iYRbfxJW5vmaIgBeUqIE-113" value="" style="shape=partialRectangle;html=1;whiteSpace=wrap;connectable=0;strokeColor=inherit;overflow=hidden;fillColor=none;top=0;left=0;bottom=0;right=0;pointerEvents=1;fontSize=6;" vertex="1" parent="iYRbfxJW5vmaIgBeUqIE-106">
          <mxGeometry x="164" width="28" height="24" as="geometry">
            <mxRectangle width="28" height="24" as="alternateBounds" />
          </mxGeometry>
        </mxCell>
        <mxCell id="iYRbfxJW5vmaIgBeUqIE-114" value="" style="shape=partialRectangle;html=1;whiteSpace=wrap;connectable=0;strokeColor=inherit;overflow=hidden;fillColor=none;top=0;left=0;bottom=0;right=0;pointerEvents=1;fontSize=6;" vertex="1" parent="iYRbfxJW5vmaIgBeUqIE-106">
          <mxGeometry x="192" width="26" height="24" as="geometry">
            <mxRectangle width="26" height="24" as="alternateBounds" />
          </mxGeometry>
        </mxCell>
        <mxCell id="iYRbfxJW5vmaIgBeUqIE-115" value="" style="shape=partialRectangle;html=1;whiteSpace=wrap;connectable=0;strokeColor=inherit;overflow=hidden;fillColor=none;top=0;left=0;bottom=0;right=0;pointerEvents=1;fontSize=6;" vertex="1" parent="iYRbfxJW5vmaIgBeUqIE-106">
          <mxGeometry x="218" width="28" height="24" as="geometry">
            <mxRectangle width="28" height="24" as="alternateBounds" />
          </mxGeometry>
        </mxCell>
        <mxCell id="iYRbfxJW5vmaIgBeUqIE-116" value="" style="shape=partialRectangle;html=1;whiteSpace=wrap;connectable=0;strokeColor=inherit;overflow=hidden;fillColor=none;top=0;left=0;bottom=0;right=0;pointerEvents=1;fontSize=6;" vertex="1" parent="iYRbfxJW5vmaIgBeUqIE-106">
          <mxGeometry x="246" width="28" height="24" as="geometry">
            <mxRectangle width="28" height="24" as="alternateBounds" />
          </mxGeometry>
        </mxCell>
        <mxCell id="iYRbfxJW5vmaIgBeUqIE-117" value="" style="shape=partialRectangle;html=1;whiteSpace=wrap;connectable=0;strokeColor=inherit;overflow=hidden;fillColor=none;top=0;left=0;bottom=0;right=0;pointerEvents=1;fontSize=6;" vertex="1" parent="iYRbfxJW5vmaIgBeUqIE-106">
          <mxGeometry x="274" width="26" height="24" as="geometry">
            <mxRectangle width="26" height="24" as="alternateBounds" />
          </mxGeometry>
        </mxCell>
        <mxCell id="iYRbfxJW5vmaIgBeUqIE-118" value="" style="shape=partialRectangle;html=1;whiteSpace=wrap;connectable=0;strokeColor=inherit;overflow=hidden;fillColor=none;top=0;left=0;bottom=0;right=0;pointerEvents=1;fontSize=6;" vertex="1" parent="iYRbfxJW5vmaIgBeUqIE-106">
          <mxGeometry x="300" width="28" height="24" as="geometry">
            <mxRectangle width="28" height="24" as="alternateBounds" />
          </mxGeometry>
        </mxCell>
        <mxCell id="iYRbfxJW5vmaIgBeUqIE-119" value="" style="shape=partialRectangle;html=1;whiteSpace=wrap;connectable=0;strokeColor=inherit;overflow=hidden;fillColor=none;top=0;left=0;bottom=0;right=0;pointerEvents=1;fontSize=6;" vertex="1" parent="iYRbfxJW5vmaIgBeUqIE-106">
          <mxGeometry x="328" width="28" height="24" as="geometry">
            <mxRectangle width="28" height="24" as="alternateBounds" />
          </mxGeometry>
        </mxCell>
        <mxCell id="iYRbfxJW5vmaIgBeUqIE-120" value="" style="shape=partialRectangle;html=1;whiteSpace=wrap;connectable=0;strokeColor=inherit;overflow=hidden;fillColor=none;top=0;left=0;bottom=0;right=0;pointerEvents=1;fontSize=6;" vertex="1" parent="iYRbfxJW5vmaIgBeUqIE-106">
          <mxGeometry x="356" width="26" height="24" as="geometry">
            <mxRectangle width="26" height="24" as="alternateBounds" />
          </mxGeometry>
        </mxCell>
        <mxCell id="iYRbfxJW5vmaIgBeUqIE-121" value="" style="shape=partialRectangle;html=1;whiteSpace=wrap;connectable=0;strokeColor=inherit;overflow=hidden;fillColor=none;top=0;left=0;bottom=0;right=0;pointerEvents=1;fontSize=6;" vertex="1" parent="iYRbfxJW5vmaIgBeUqIE-106">
          <mxGeometry x="382" width="28" height="24" as="geometry">
            <mxRectangle width="28" height="24" as="alternateBounds" />
          </mxGeometry>
        </mxCell>
        <mxCell id="iYRbfxJW5vmaIgBeUqIE-144" style="shape=partialRectangle;html=1;whiteSpace=wrap;connectable=0;strokeColor=inherit;overflow=hidden;fillColor=none;top=0;left=0;bottom=0;right=0;pointerEvents=1;fontSize=6;" vertex="1" parent="iYRbfxJW5vmaIgBeUqIE-106">
          <mxGeometry x="410" width="28" height="24" as="geometry">
            <mxRectangle width="28" height="24" as="alternateBounds" />
          </mxGeometry>
        </mxCell>
        <mxCell id="iYRbfxJW5vmaIgBeUqIE-122" value="" style="shape=tableRow;horizontal=0;startSize=0;swimlaneHead=0;swimlaneBody=0;strokeColor=inherit;top=0;left=0;bottom=0;right=0;collapsible=0;dropTarget=0;fillColor=none;points=[[0,0.5],[1,0.5]];portConstraint=eastwest;" vertex="1" parent="iYRbfxJW5vmaIgBeUqIE-89">
          <mxGeometry y="47" width="438" height="23" as="geometry" />
        </mxCell>
        <mxCell id="iYRbfxJW5vmaIgBeUqIE-123" value="FIN" style="shape=partialRectangle;html=1;whiteSpace=wrap;connectable=0;strokeColor=inherit;overflow=hidden;fillColor=none;top=0;left=0;bottom=0;right=0;pointerEvents=1;fontSize=6;" vertex="1" parent="iYRbfxJW5vmaIgBeUqIE-122">
          <mxGeometry width="28" height="23" as="geometry">
            <mxRectangle width="28" height="23" as="alternateBounds" />
          </mxGeometry>
        </mxCell>
        <mxCell id="iYRbfxJW5vmaIgBeUqIE-124" value="" style="shape=partialRectangle;html=1;whiteSpace=wrap;connectable=0;strokeColor=inherit;overflow=hidden;fillColor=none;top=0;left=0;bottom=0;right=0;pointerEvents=1;fontSize=6;" vertex="1" parent="iYRbfxJW5vmaIgBeUqIE-122">
          <mxGeometry x="28" width="26" height="23" as="geometry">
            <mxRectangle width="26" height="23" as="alternateBounds" />
          </mxGeometry>
        </mxCell>
        <mxCell id="iYRbfxJW5vmaIgBeUqIE-125" value="" style="shape=partialRectangle;html=1;whiteSpace=wrap;connectable=0;strokeColor=inherit;overflow=hidden;fillColor=none;top=0;left=0;bottom=0;right=0;pointerEvents=1;fontSize=6;" vertex="1" parent="iYRbfxJW5vmaIgBeUqIE-122">
          <mxGeometry x="54" width="28" height="23" as="geometry">
            <mxRectangle width="28" height="23" as="alternateBounds" />
          </mxGeometry>
        </mxCell>
        <mxCell id="iYRbfxJW5vmaIgBeUqIE-126" value="" style="shape=partialRectangle;html=1;whiteSpace=wrap;connectable=0;strokeColor=inherit;overflow=hidden;fillColor=none;top=0;left=0;bottom=0;right=0;pointerEvents=1;fontSize=6;" vertex="1" parent="iYRbfxJW5vmaIgBeUqIE-122">
          <mxGeometry x="82" width="28" height="23" as="geometry">
            <mxRectangle width="28" height="23" as="alternateBounds" />
          </mxGeometry>
        </mxCell>
        <mxCell id="iYRbfxJW5vmaIgBeUqIE-127" value="" style="shape=partialRectangle;html=1;whiteSpace=wrap;connectable=0;strokeColor=inherit;overflow=hidden;fillColor=none;top=0;left=0;bottom=0;right=0;pointerEvents=1;fontSize=6;" vertex="1" parent="iYRbfxJW5vmaIgBeUqIE-122">
          <mxGeometry x="110" width="26" height="23" as="geometry">
            <mxRectangle width="26" height="23" as="alternateBounds" />
          </mxGeometry>
        </mxCell>
        <mxCell id="iYRbfxJW5vmaIgBeUqIE-128" value="" style="shape=partialRectangle;html=1;whiteSpace=wrap;connectable=0;strokeColor=inherit;overflow=hidden;fillColor=none;top=0;left=0;bottom=0;right=0;pointerEvents=1;fontSize=6;" vertex="1" parent="iYRbfxJW5vmaIgBeUqIE-122">
          <mxGeometry x="136" width="28" height="23" as="geometry">
            <mxRectangle width="28" height="23" as="alternateBounds" />
          </mxGeometry>
        </mxCell>
        <mxCell id="iYRbfxJW5vmaIgBeUqIE-129" value="" style="shape=partialRectangle;html=1;whiteSpace=wrap;connectable=0;strokeColor=inherit;overflow=hidden;fillColor=none;top=0;left=0;bottom=0;right=0;pointerEvents=1;fontSize=6;" vertex="1" parent="iYRbfxJW5vmaIgBeUqIE-122">
          <mxGeometry x="164" width="28" height="23" as="geometry">
            <mxRectangle width="28" height="23" as="alternateBounds" />
          </mxGeometry>
        </mxCell>
        <mxCell id="iYRbfxJW5vmaIgBeUqIE-130" value="" style="shape=partialRectangle;html=1;whiteSpace=wrap;connectable=0;strokeColor=inherit;overflow=hidden;fillColor=none;top=0;left=0;bottom=0;right=0;pointerEvents=1;fontSize=6;" vertex="1" parent="iYRbfxJW5vmaIgBeUqIE-122">
          <mxGeometry x="192" width="26" height="23" as="geometry">
            <mxRectangle width="26" height="23" as="alternateBounds" />
          </mxGeometry>
        </mxCell>
        <mxCell id="iYRbfxJW5vmaIgBeUqIE-131" value="" style="shape=partialRectangle;html=1;whiteSpace=wrap;connectable=0;strokeColor=inherit;overflow=hidden;fillColor=none;top=0;left=0;bottom=0;right=0;pointerEvents=1;fontSize=6;" vertex="1" parent="iYRbfxJW5vmaIgBeUqIE-122">
          <mxGeometry x="218" width="28" height="23" as="geometry">
            <mxRectangle width="28" height="23" as="alternateBounds" />
          </mxGeometry>
        </mxCell>
        <mxCell id="iYRbfxJW5vmaIgBeUqIE-132" value="" style="shape=partialRectangle;html=1;whiteSpace=wrap;connectable=0;strokeColor=inherit;overflow=hidden;fillColor=none;top=0;left=0;bottom=0;right=0;pointerEvents=1;fontSize=6;" vertex="1" parent="iYRbfxJW5vmaIgBeUqIE-122">
          <mxGeometry x="246" width="28" height="23" as="geometry">
            <mxRectangle width="28" height="23" as="alternateBounds" />
          </mxGeometry>
        </mxCell>
        <mxCell id="iYRbfxJW5vmaIgBeUqIE-133" value="" style="shape=partialRectangle;html=1;whiteSpace=wrap;connectable=0;strokeColor=inherit;overflow=hidden;fillColor=none;top=0;left=0;bottom=0;right=0;pointerEvents=1;fontSize=6;" vertex="1" parent="iYRbfxJW5vmaIgBeUqIE-122">
          <mxGeometry x="274" width="26" height="23" as="geometry">
            <mxRectangle width="26" height="23" as="alternateBounds" />
          </mxGeometry>
        </mxCell>
        <mxCell id="iYRbfxJW5vmaIgBeUqIE-134" value="" style="shape=partialRectangle;html=1;whiteSpace=wrap;connectable=0;strokeColor=inherit;overflow=hidden;fillColor=none;top=0;left=0;bottom=0;right=0;pointerEvents=1;fontSize=6;" vertex="1" parent="iYRbfxJW5vmaIgBeUqIE-122">
          <mxGeometry x="300" width="28" height="23" as="geometry">
            <mxRectangle width="28" height="23" as="alternateBounds" />
          </mxGeometry>
        </mxCell>
        <mxCell id="iYRbfxJW5vmaIgBeUqIE-135" value="" style="shape=partialRectangle;html=1;whiteSpace=wrap;connectable=0;strokeColor=inherit;overflow=hidden;fillColor=none;top=0;left=0;bottom=0;right=0;pointerEvents=1;fontSize=6;" vertex="1" parent="iYRbfxJW5vmaIgBeUqIE-122">
          <mxGeometry x="328" width="28" height="23" as="geometry">
            <mxRectangle width="28" height="23" as="alternateBounds" />
          </mxGeometry>
        </mxCell>
        <mxCell id="iYRbfxJW5vmaIgBeUqIE-136" value="" style="shape=partialRectangle;html=1;whiteSpace=wrap;connectable=0;strokeColor=inherit;overflow=hidden;fillColor=none;top=0;left=0;bottom=0;right=0;pointerEvents=1;fontSize=6;" vertex="1" parent="iYRbfxJW5vmaIgBeUqIE-122">
          <mxGeometry x="356" width="26" height="23" as="geometry">
            <mxRectangle width="26" height="23" as="alternateBounds" />
          </mxGeometry>
        </mxCell>
        <mxCell id="iYRbfxJW5vmaIgBeUqIE-137" value="" style="shape=partialRectangle;html=1;whiteSpace=wrap;connectable=0;strokeColor=inherit;overflow=hidden;fillColor=none;top=0;left=0;bottom=0;right=0;pointerEvents=1;fontSize=6;" vertex="1" parent="iYRbfxJW5vmaIgBeUqIE-122">
          <mxGeometry x="382" width="28" height="23" as="geometry">
            <mxRectangle width="28" height="23" as="alternateBounds" />
          </mxGeometry>
        </mxCell>
        <mxCell id="iYRbfxJW5vmaIgBeUqIE-145" style="shape=partialRectangle;html=1;whiteSpace=wrap;connectable=0;strokeColor=inherit;overflow=hidden;fillColor=none;top=0;left=0;bottom=0;right=0;pointerEvents=1;fontSize=6;" vertex="1" parent="iYRbfxJW5vmaIgBeUqIE-122">
          <mxGeometry x="410" width="28" height="23" as="geometry">
            <mxRectangle width="28" height="23" as="alternateBounds" />
          </mxGeometry>
        </mxCell>
        <mxCell id="iYRbfxJW5vmaIgBeUqIE-146" value="&lt;div style=&quot;font-size: 10px;&quot;&gt;rbp - 0x4c =&amp;nbsp;&lt;br style=&quot;font-size: 10px;&quot;&gt;&lt;/div&gt;&lt;div style=&quot;font-size: 10px;&quot;&gt;rbp - 0x4d =&amp;nbsp;&lt;/div&gt;&lt;div style=&quot;font-size: 10px;&quot;&gt;rbp - 0x4e =&lt;/div&gt;&lt;div style=&quot;font-size: 10px;&quot;&gt;&lt;br style=&quot;font-size: 10px;&quot;&gt;&lt;/div&gt;&lt;div style=&quot;font-size: 10px;&quot;&gt;edx =&amp;nbsp;&lt;/div&gt;&lt;div style=&quot;font-size: 10px;&quot;&gt;&lt;br style=&quot;font-size: 10px;&quot;&gt;&lt;/div&gt;&lt;div style=&quot;font-size: 10px;&quot;&gt;eax =&lt;/div&gt;&lt;div style=&quot;font-size: 10px;&quot;&gt;&lt;br style=&quot;font-size: 10px;&quot;&gt;&lt;/div&gt;" style="rounded=0;whiteSpace=wrap;html=1;labelPosition=center;verticalLabelPosition=middle;align=left;verticalAlign=top;fontSize=10;" vertex="1" parent="WIyWlLk6GJQsqaUBKTNV-1">
          <mxGeometry x="390" y="290" width="350" height="130" as="geometry" />
        </mxCell>
        <mxCell id="iYRbfxJW5vmaIgBeUqIE-147" style="edgeStyle=orthogonalEdgeStyle;rounded=0;orthogonalLoop=1;jettySize=auto;html=1;entryX=0.5;entryY=0;entryDx=0;entryDy=0;" edge="1" parent="WIyWlLk6GJQsqaUBKTNV-1" source="iYRbfxJW5vmaIgBeUqIE-148" target="iYRbfxJW5vmaIgBeUqIE-151">
          <mxGeometry relative="1" as="geometry" />
        </mxCell>
        <mxCell id="iYRbfxJW5vmaIgBeUqIE-148" value="[rbp - 0x48] = 0" style="rounded=0;whiteSpace=wrap;html=1;fontSize=10;fillColor=#e1d5e7;strokeColor=#9673a6;" vertex="1" parent="WIyWlLk6GJQsqaUBKTNV-1">
          <mxGeometry x="120" y="585" width="80" height="30" as="geometry" />
        </mxCell>
        <mxCell id="iYRbfxJW5vmaIgBeUqIE-149" style="edgeStyle=orthogonalEdgeStyle;rounded=0;orthogonalLoop=1;jettySize=auto;html=1;entryX=0.5;entryY=0;entryDx=0;entryDy=0;" edge="1" parent="WIyWlLk6GJQsqaUBKTNV-1" source="iYRbfxJW5vmaIgBeUqIE-151" target="iYRbfxJW5vmaIgBeUqIE-153">
          <mxGeometry relative="1" as="geometry" />
        </mxCell>
        <mxCell id="iYRbfxJW5vmaIgBeUqIE-150" value="TRUE" style="edgeLabel;html=1;align=center;verticalAlign=middle;resizable=0;points=[];" vertex="1" connectable="0" parent="iYRbfxJW5vmaIgBeUqIE-149">
          <mxGeometry x="-0.6219" y="1" relative="1" as="geometry">
            <mxPoint x="-1" y="1" as="offset" />
          </mxGeometry>
        </mxCell>
        <mxCell id="iYRbfxJW5vmaIgBeUqIE-164" style="edgeStyle=orthogonalEdgeStyle;rounded=0;orthogonalLoop=1;jettySize=auto;html=1;entryX=0.5;entryY=0;entryDx=0;entryDy=0;" edge="1" parent="WIyWlLk6GJQsqaUBKTNV-1" source="iYRbfxJW5vmaIgBeUqIE-151" target="iYRbfxJW5vmaIgBeUqIE-158">
          <mxGeometry relative="1" as="geometry">
            <mxPoint x="140" y="1050" as="targetPoint" />
            <Array as="points">
              <mxPoint x="50" y="680" />
              <mxPoint x="50" y="990" />
              <mxPoint x="153" y="990" />
              <mxPoint x="153" y="1050" />
              <mxPoint x="153" y="1050" />
            </Array>
          </mxGeometry>
        </mxCell>
        <mxCell id="iYRbfxJW5vmaIgBeUqIE-165" value="FALSE" style="edgeLabel;html=1;align=center;verticalAlign=middle;resizable=0;points=[];" vertex="1" connectable="0" parent="iYRbfxJW5vmaIgBeUqIE-164">
          <mxGeometry x="-0.6499" y="3" relative="1" as="geometry">
            <mxPoint as="offset" />
          </mxGeometry>
        </mxCell>
        <mxCell id="iYRbfxJW5vmaIgBeUqIE-151" value="[rbp - 0x48] &amp;lt;= 0x12" style="rhombus;whiteSpace=wrap;html=1;fontSize=10;fillColor=#ffe6cc;strokeColor=#d79b00;" vertex="1" parent="WIyWlLk6GJQsqaUBKTNV-1">
          <mxGeometry x="100" y="645" width="120" height="70" as="geometry" />
        </mxCell>
        <mxCell id="iYRbfxJW5vmaIgBeUqIE-152" style="edgeStyle=orthogonalEdgeStyle;rounded=0;orthogonalLoop=1;jettySize=auto;html=1;entryX=1.027;entryY=0.497;entryDx=0;entryDy=0;entryPerimeter=0;exitX=0.5;exitY=1;exitDx=0;exitDy=0;" edge="1" parent="WIyWlLk6GJQsqaUBKTNV-1" source="iYRbfxJW5vmaIgBeUqIE-153" target="iYRbfxJW5vmaIgBeUqIE-151">
          <mxGeometry relative="1" as="geometry">
            <mxPoint x="240" y="655" as="targetPoint" />
            <Array as="points">
              <mxPoint x="160" y="960" />
              <mxPoint x="260" y="960" />
              <mxPoint x="260" y="680" />
            </Array>
          </mxGeometry>
        </mxCell>
        <mxCell id="iYRbfxJW5vmaIgBeUqIE-153" value="&lt;div&gt;&lt;div&gt;mov &lt;font color=&quot;#ff8000&quot;&gt;eax&lt;/font&gt;, dword [rbp - 0x48]&lt;/div&gt;&lt;div&gt;&lt;span style=&quot;background-color: initial;&quot;&gt;movzx&amp;nbsp;&lt;/span&gt;&lt;span style=&quot;color: rgb(255, 128, 0);&quot;&gt;eax&lt;/span&gt;&lt;span style=&quot;background-color: initial;&quot;&gt;, byte [rbp + &lt;/span&gt;&lt;span style=&quot;color: rgb(255, 128, 0);&quot;&gt;rax&lt;/span&gt;&lt;span style=&quot;background-color: initial;&quot;&gt;&amp;nbsp;- 0x30]&lt;/span&gt;&lt;br&gt;&lt;/div&gt;&lt;div&gt;mov byte [rbp - 0x50],&amp;nbsp;&lt;span style=&quot;color: rgb(255, 128, 0); background-color: initial;&quot;&gt;al&lt;/span&gt;&lt;/div&gt;&lt;div&gt;mov&amp;nbsp;&lt;span style=&quot;color: rgb(255, 128, 0);&quot;&gt;eax&lt;/span&gt;, 0x25&lt;/div&gt;&lt;div&gt;sub&amp;nbsp;&lt;span style=&quot;color: rgb(255, 128, 0);&quot;&gt;eax&lt;/span&gt;, dword [rbp - 0x48]&lt;/div&gt;&lt;div&gt;&lt;span style=&quot;background-color: initial;&quot;&gt;movzx&amp;nbsp;&lt;/span&gt;&lt;span style=&quot;color: rgb(255, 128, 0);&quot;&gt;eax&lt;/span&gt;&lt;span style=&quot;background-color: initial;&quot;&gt;, byte [rbp +&amp;nbsp;&lt;/span&gt;&lt;span style=&quot;color: rgb(255, 128, 0);&quot;&gt;rax&lt;/span&gt;&lt;span style=&quot;background-color: initial;&quot;&gt;&amp;nbsp;- 0x30]&lt;/span&gt;&lt;br&gt;&lt;/div&gt;&lt;div&gt;mov byte [rbp - 0x4f],&amp;nbsp;&lt;span style=&quot;color: rgb(255, 128, 0); background-color: initial;&quot;&gt;al&lt;/span&gt;&lt;/div&gt;&lt;div&gt;mov&amp;nbsp;&lt;span style=&quot;color: rgb(255, 128, 0);&quot;&gt;eax&lt;/span&gt;, dword [rbp - 0x48]&lt;/div&gt;&lt;div&gt;&lt;span style=&quot;background-color: initial;&quot;&gt;movzx &lt;font color=&quot;#3399ff&quot;&gt;edx&lt;/font&gt;, byte [rbp - 0x4f]&lt;/span&gt;&lt;br&gt;&lt;/div&gt;&lt;div&gt;mov byte [rbp + &lt;span style=&quot;color: rgb(255, 128, 0);&quot;&gt;rax&lt;/span&gt;&amp;nbsp;- 0x30],&amp;nbsp;&lt;span style=&quot;color: rgb(51, 153, 255); background-color: initial;&quot;&gt;dl&lt;/span&gt;&lt;/div&gt;&lt;div&gt;mov&amp;nbsp;&lt;span style=&quot;color: rgb(255, 128, 0);&quot;&gt;eax&lt;/span&gt;, 0x25&amp;nbsp;&lt;/div&gt;&lt;div&gt;sub&amp;nbsp;&lt;span style=&quot;color: rgb(255, 128, 0);&quot;&gt;eax&lt;/span&gt;, dword [rbp - 0x48]&lt;/div&gt;&lt;div&gt;&lt;span style=&quot;background-color: initial;&quot;&gt;movzx&amp;nbsp;&lt;/span&gt;&lt;span style=&quot;color: rgb(51, 153, 255);&quot;&gt;edx&lt;/span&gt;&lt;span style=&quot;background-color: initial;&quot;&gt;, byte [rbp - 0x50]&lt;/span&gt;&lt;br&gt;&lt;/div&gt;&lt;div&gt;mov byte [rbp + &lt;span style=&quot;color: rgb(255, 128, 0);&quot;&gt;rax&lt;/span&gt;&amp;nbsp;- 0x30],&amp;nbsp;&lt;span style=&quot;color: rgb(51, 153, 255); background-color: initial;&quot;&gt;dl&lt;/span&gt;&lt;/div&gt;&lt;div&gt;add dword [rbp - 0x48], 1&lt;/div&gt;&lt;/div&gt;&lt;div&gt;&lt;br&gt;&lt;/div&gt;" style="rounded=0;whiteSpace=wrap;html=1;fontSize=10;fillColor=#bac8d3;strokeColor=#23445d;verticalAlign=top;" vertex="1" parent="WIyWlLk6GJQsqaUBKTNV-1">
          <mxGeometry x="75" y="750" width="170" height="195" as="geometry" />
        </mxCell>
        <mxCell id="iYRbfxJW5vmaIgBeUqIE-157" style="edgeStyle=orthogonalEdgeStyle;rounded=0;orthogonalLoop=1;jettySize=auto;html=1;entryX=0.5;entryY=0;entryDx=0;entryDy=0;" edge="1" parent="WIyWlLk6GJQsqaUBKTNV-1" source="iYRbfxJW5vmaIgBeUqIE-158" target="iYRbfxJW5vmaIgBeUqIE-161">
          <mxGeometry relative="1" as="geometry" />
        </mxCell>
        <mxCell id="iYRbfxJW5vmaIgBeUqIE-158" value="[rbp - 0x44] = 0" style="rounded=0;whiteSpace=wrap;html=1;fontSize=10;fillColor=#e1d5e7;strokeColor=#9673a6;" vertex="1" parent="WIyWlLk6GJQsqaUBKTNV-1">
          <mxGeometry x="112.5" y="1070" width="80" height="30" as="geometry" />
        </mxCell>
        <mxCell id="iYRbfxJW5vmaIgBeUqIE-159" style="edgeStyle=orthogonalEdgeStyle;rounded=0;orthogonalLoop=1;jettySize=auto;html=1;entryX=0.5;entryY=0;entryDx=0;entryDy=0;" edge="1" parent="WIyWlLk6GJQsqaUBKTNV-1" source="iYRbfxJW5vmaIgBeUqIE-161" target="iYRbfxJW5vmaIgBeUqIE-163">
          <mxGeometry relative="1" as="geometry" />
        </mxCell>
        <mxCell id="iYRbfxJW5vmaIgBeUqIE-160" value="TRUE" style="edgeLabel;html=1;align=center;verticalAlign=middle;resizable=0;points=[];" vertex="1" connectable="0" parent="iYRbfxJW5vmaIgBeUqIE-159">
          <mxGeometry x="-0.6219" y="1" relative="1" as="geometry">
            <mxPoint x="-1" y="1" as="offset" />
          </mxGeometry>
        </mxCell>
        <mxCell id="iYRbfxJW5vmaIgBeUqIE-161" value="[rbp - 0x44] &amp;lt;= 0x24" style="rhombus;whiteSpace=wrap;html=1;fontSize=10;fillColor=#ffe6cc;strokeColor=#d79b00;" vertex="1" parent="WIyWlLk6GJQsqaUBKTNV-1">
          <mxGeometry x="92.5" y="1130" width="120" height="70" as="geometry" />
        </mxCell>
        <mxCell id="iYRbfxJW5vmaIgBeUqIE-162" style="edgeStyle=orthogonalEdgeStyle;rounded=0;orthogonalLoop=1;jettySize=auto;html=1;entryX=1.027;entryY=0.497;entryDx=0;entryDy=0;entryPerimeter=0;exitX=0.5;exitY=1;exitDx=0;exitDy=0;" edge="1" parent="WIyWlLk6GJQsqaUBKTNV-1" source="iYRbfxJW5vmaIgBeUqIE-163" target="iYRbfxJW5vmaIgBeUqIE-161">
          <mxGeometry relative="1" as="geometry">
            <mxPoint x="232.5" y="1140" as="targetPoint" />
            <Array as="points">
              <mxPoint x="153" y="1620" />
              <mxPoint x="253" y="1620" />
              <mxPoint x="253" y="1165" />
            </Array>
          </mxGeometry>
        </mxCell>
        <mxCell id="iYRbfxJW5vmaIgBeUqIE-163" value="&lt;div&gt;&lt;div&gt;mov dword [rbp - 0x40], 0&lt;/div&gt;&lt;div&gt;jmp 0x1666&lt;/div&gt;&lt;div&gt;&lt;span style=&quot;background-color: initial;&quot;&gt;mov eax, dword [rbp - 0x40]&lt;/span&gt;&lt;br&gt;&lt;/div&gt;&lt;div&gt;&lt;span style=&quot;background-color: initial;&quot;&gt;movzx edx, byte [rbp + rax - 0x30]&lt;/span&gt;&lt;br&gt;&lt;/div&gt;&lt;div&gt;mov eax, dword [rbp - 0x40]&lt;/div&gt;&lt;div&gt;add eax, 1&lt;/div&gt;&lt;div&gt;&lt;span style=&quot;background-color: initial;&quot;&gt;movzx eax, byte [rbp + rax - 0x30]&lt;/span&gt;&lt;br&gt;&lt;/div&gt;&lt;div&gt;cmp dl, al&lt;/div&gt;&lt;div&gt;jbe 0x1662&lt;/div&gt;&lt;div&gt;mov eax, dword [rbp - 0x40]&lt;/div&gt;&lt;div&gt;&lt;span style=&quot;background-color: initial;&quot;&gt;movzx eax, byte [rbp + rax - 0x30]&lt;/span&gt;&lt;br&gt;&lt;/div&gt;&lt;div&gt;mov byte [rbp - 0x52], al&lt;/div&gt;&lt;div&gt;mov eax, dword [rbp - 0x40]&lt;/div&gt;&lt;div&gt;add eax, 1&lt;/div&gt;&lt;div&gt;&lt;span style=&quot;background-color: initial;&quot;&gt;movzx eax, byte [rbp + rax - 0x30]&lt;/span&gt;&lt;br&gt;&lt;/div&gt;&lt;div&gt;mov byte [rbp - 0x51], al&lt;/div&gt;&lt;div&gt;mov eax, dword [rbp - 0x40]&lt;/div&gt;&lt;div&gt;&lt;span style=&quot;background-color: initial;&quot;&gt;movzx edx, byte [rbp - 0x51]&lt;/span&gt;&lt;br&gt;&lt;/div&gt;&lt;div&gt;mov byte [rbp + rax - 0x30], dl&lt;/div&gt;&lt;div&gt;mov eax, dword [rbp - 0x40]&lt;/div&gt;&lt;div&gt;add eax, 1&lt;/div&gt;&lt;div&gt;&lt;span style=&quot;background-color: initial;&quot;&gt;movzx edx, byte [rbp - 0x52]&lt;/span&gt;&lt;br&gt;&lt;/div&gt;&lt;div&gt;mov byte [rbp + rax - 0x30], dl&lt;/div&gt;&lt;div&gt;&lt;span style=&quot;background-color: initial;&quot;&gt;add dword [rbp - 0x40], 1&lt;/span&gt;&lt;br&gt;&lt;/div&gt;&lt;div&gt;&lt;span style=&quot;background-color: initial;&quot;&gt;mov eax, 0x25&amp;nbsp;&lt;/span&gt;&lt;br&gt;&lt;/div&gt;&lt;div&gt;sub eax, dword [rbp - 0x44]&lt;/div&gt;&lt;div&gt;cmp dword [rbp - 0x40], eax&lt;/div&gt;&lt;div&gt;jl 0x160d&lt;/div&gt;&lt;div&gt;add dword [rbp - 0x44], 1&lt;br&gt;&lt;/div&gt;&lt;/div&gt;&lt;div&gt;&lt;br&gt;&lt;/div&gt;" style="rounded=0;whiteSpace=wrap;html=1;fontSize=10;fillColor=#bac8d3;strokeColor=#23445d;verticalAlign=top;" vertex="1" parent="WIyWlLk6GJQsqaUBKTNV-1">
          <mxGeometry x="68.75" y="1240" width="167.5" height="365" as="geometry" />
        </mxCell>
      </root>
    </mxGraphModel>
  </diagram>
</mxfile>
